<svg width="12" height="19" viewBox="0 0 12 19" fill="none" xmlns="http://www.w3.org/2000/svg">
<path d="M0.996151 7.86224H11.0046C11.2368 7.8615 11.4697 7.78122 11.6583 7.61768C12.0727 7.25754 12.1163 6.63016 11.7556 6.21687L6.62237 0.340412C6.58697 0.300643 6.54821 0.262362 6.50573 0.227796C6.08237 -0.121572 5.45517 -0.0624767 5.10523 0.359739L0.261615 6.19754C0.093051 6.38062 -0.000330925 6.62022 0 6.86877C0 7.41735 0.446088 7.86224 0.996151 7.86224ZM11.0046 11.1381L0.996151 11.1378C0.446088 11.1378 0 11.5826 0 12.1312C0 12.3899 0.0991297 12.6255 0.261615 12.8025L5.10523 18.6403C5.45517 19.0625 6.08237 19.1216 6.50573 18.7722C6.54821 18.7376 6.58697 18.6994 6.62237 18.6596L11.7556 12.7831C12.1163 12.3698 12.0727 11.7425 11.6583 11.3823C11.4697 11.2188 11.2368 11.1385 11.0046 11.1381Z" fill="black"/>
</svg>
